<svg xmlns="http://www.w3.org/2000/svg" viewBox="0 0 314.06 55.91"><defs><style>.cls-1{fill:#5746ea;}</style></defs><g id="Layer_2" data-name="Layer 2"><g id="Tabs"><path class="cls-1" d="M13.67,49.69A1.69,1.69,0,0,1,12,48V19.57H1.68a1.61,1.61,0,0,1-1.18-.5A1.57,1.57,0,0,1,0,17.89v-10A1.57,1.57,0,0,1,.5,6.71a1.61,1.61,0,0,1,1.18-.5h36.4a1.63,1.63,0,0,1,1.18.5,1.6,1.6,0,0,1,.49,1.18v10a1.6,1.6,0,0,1-.49,1.18,1.63,1.63,0,0,1-1.18.5H27.77V48a1.69,1.69,0,0,1-1.68,1.67Z"/><path class="cls-1" d="M45.9,49.69A1.67,1.67,0,0,1,44.23,48V7.89a1.6,1.6,0,0,1,.49-1.18,1.64,1.64,0,0,1,1.18-.5H58.58a1.64,1.64,0,0,1,1.18.5,1.6,1.6,0,0,1,.49,1.18V48a1.67,1.67,0,0,1-1.67,1.67Z"/><path class="cls-1" d="M68.76,49.69A1.67,1.67,0,0,1,67.09,48V7.89a1.6,1.6,0,0,1,.49-1.18,1.63,1.63,0,0,1,1.18-.5h9.82a2.41,2.41,0,0,1,1.86.68,8.75,8.75,0,0,1,.81,1l9,14.91,9-14.91a8.75,8.75,0,0,1,.81-1,2.4,2.4,0,0,1,1.86-.68h9.82a1.63,1.63,0,0,1,1.18.5,1.6,1.6,0,0,1,.49,1.18V48a1.67,1.67,0,0,1-1.67,1.67H100.5A1.67,1.67,0,0,1,98.83,48V31l-4.1,6.71a6.1,6.1,0,0,1-.84,1,2,2,0,0,1-1.46.53H88.08a2,2,0,0,1-1.46-.53,6.1,6.1,0,0,1-.84-1L81.68,31V48A1.67,1.67,0,0,1,80,49.69Z"/><path class="cls-1" d="M121.93,49.69A1.67,1.67,0,0,1,120.26,48V7.89a1.6,1.6,0,0,1,.49-1.18,1.64,1.64,0,0,1,1.18-.5H153.8a1.71,1.71,0,0,1,1.68,1.68v8.76a1.63,1.63,0,0,1-.5,1.18,1.61,1.61,0,0,1-1.18.5H135.17v3.91h17.26a1.71,1.71,0,0,1,1.68,1.68V32a1.57,1.57,0,0,1-.5,1.18,1.61,1.61,0,0,1-1.18.5H135.17v3.91H154.3a1.63,1.63,0,0,1,1.18.5,1.6,1.6,0,0,1,.49,1.18V48a1.67,1.67,0,0,1-1.67,1.67Z"/><path class="cls-1" d="M176.41,55.91a1.61,1.61,0,0,1-1.18-.5,1.63,1.63,0,0,1-.5-1.18V49.94a22.88,22.88,0,0,1-8.26-2.67,13.78,13.78,0,0,1-4.94-4.6,11,11,0,0,1-1.7-5.59,1.37,1.37,0,0,1,1.36-1.36H173a3.31,3.31,0,0,1,1.53.28,7.42,7.42,0,0,1,1.15.77,11.09,11.09,0,0,0,1.27.78,5.33,5.33,0,0,0,1.49.5,10.43,10.43,0,0,0,1.83.15,10.14,10.14,0,0,0,3.39-.46c.85-.31,1.27-.74,1.27-1.28a1.48,1.48,0,0,0-.71-1.24,7.7,7.7,0,0,0-2.46-.9,47.81,47.81,0,0,0-4.84-.78,31.44,31.44,0,0,1-8.51-2.29,13,13,0,0,1-5.56-4.45,11.81,11.81,0,0,1-2-6.92,12.18,12.18,0,0,1,3.76-9A18.54,18.54,0,0,1,174.73,6V1.68a1.61,1.61,0,0,1,.5-1.18,1.61,1.61,0,0,1,1.18-.5h7.52a1.64,1.64,0,0,1,1.18.5,1.6,1.6,0,0,1,.49,1.18V6.21a20.81,20.81,0,0,1,7.43,3,16.27,16.27,0,0,1,4.62,4.54,9.16,9.16,0,0,1,1.68,4.72,1.31,1.31,0,0,1-.4,1,1.25,1.25,0,0,1-.9.41H185.6a3.36,3.36,0,0,1-1.39-.25,4.64,4.64,0,0,1-1.09-.75,4.46,4.46,0,0,0-1.15-.71,4.92,4.92,0,0,0-2.14-.41,4.27,4.27,0,0,0-2.27.47,1.43,1.43,0,0,0-.71,1.27,1.41,1.41,0,0,0,.55,1.06,5.19,5.19,0,0,0,2,.87,39.66,39.66,0,0,0,4.29.74,36.11,36.11,0,0,1,10,2.4,11.68,11.68,0,0,1,5.47,4.37,12.57,12.57,0,0,1,1.7,6.78,12,12,0,0,1-1.95,6.74,15.07,15.07,0,0,1-5.41,4.84,24.79,24.79,0,0,1-7.92,2.64v4.35a1.62,1.62,0,0,1-.49,1.18,1.64,1.64,0,0,1-1.18.5Z"/><path class="cls-1" d="M207.53,49.69a1.65,1.65,0,0,1-1.18-.46,1.6,1.6,0,0,1-.5-1.21V7.89a1.71,1.71,0,0,1,1.68-1.68h12.18a1.64,1.64,0,0,1,1.18.5,1.6,1.6,0,0,1,.49,1.18v13h10.07v-13a1.6,1.6,0,0,1,.49-1.18,1.63,1.63,0,0,1,1.18-.5H245.3a1.63,1.63,0,0,1,1.18.5,1.61,1.61,0,0,1,.5,1.18V48a1.69,1.69,0,0,1-1.68,1.67H233.12A1.67,1.67,0,0,1,231.45,48V34.6H221.38V48a1.67,1.67,0,0,1-1.67,1.67Z"/><path class="cls-1" d="M255.49,49.69A1.69,1.69,0,0,1,253.81,48V7.89a1.57,1.57,0,0,1,.5-1.18,1.61,1.61,0,0,1,1.18-.5h12.67a1.63,1.63,0,0,1,1.18.5,1.6,1.6,0,0,1,.49,1.18V48a1.67,1.67,0,0,1-1.67,1.67Z"/><path class="cls-1" d="M288,49.69A1.67,1.67,0,0,1,286.3,48V19.57H276a1.63,1.63,0,0,1-1.18-.5,1.6,1.6,0,0,1-.49-1.18v-10a1.6,1.6,0,0,1,.49-1.18,1.63,1.63,0,0,1,1.18-.5h36.4a1.61,1.61,0,0,1,1.18.5,1.57,1.57,0,0,1,.5,1.18v10a1.57,1.57,0,0,1-.5,1.18,1.61,1.61,0,0,1-1.18.5H302.07V48a1.67,1.67,0,0,1-1.67,1.67Z"/></g></g></svg>